HIERARCHY
ROOT Hips
{
	OFFSET 0.000000 0.000000 0.000000
	CHANNELS 6 Xposition Yposition Zposition Xrotation Yrotation Zrotation
	JOINT LeftUpLeg_virtual
	{
		OFFSET 0.000000 0.000000 0.000000
		CHANNELS 3 Xrotation Yrotation Zrotation
		JOINT LeftUpLeg
		{
			OFFSET 15.427100 -6.655098 0.678600
			CHANNELS 3 Xrotation Yrotation Zrotation
			JOINT LeftLeg
			{
				OFFSET 4.081073 -39.591068 13.024000
				CHANNELS 3 Xrotation Yrotation Zrotation
				JOINT LeftFoot
				{
					OFFSET -4.081074 -37.707932 -15.979700
					CHANNELS 3 Xrotation Yrotation Zrotation
					JOINT LeftToeBase
					{
						OFFSET 5.346399 -15.068900 20.645000
						CHANNELS 3 Xrotation Yrotation Zrotation
						JOINT LeftToe_End
						{
							OFFSET 2.754700 0.931300 11.300900
							CHANNELS 3 Xrotation Yrotation Zrotation
							End Site
							{
								OFFSET 0 0 0
							}
						}
					}
				}
			}
		}
	}
	JOINT RightUpLeg_virtual
	{
		OFFSET 0.000000 0.000000 0.000000
		CHANNELS 3 Xrotation Yrotation Zrotation
		JOINT RightUpLeg
		{
			OFFSET -15.569500 -6.655098 0.678600
			CHANNELS 3 Xrotation Yrotation Zrotation
			JOINT RightLeg
			{
				OFFSET -4.081825 -39.591045 13.023800
				CHANNELS 3 Xrotation Yrotation Zrotation
				JOINT RightFoot
				{
					OFFSET 4.081824 -37.707954 -15.979600
					CHANNELS 3 Xrotation Yrotation Zrotation
					JOINT RightToeBase
					{
						OFFSET -5.346400 -15.068900 20.645000
						CHANNELS 3 Xrotation Yrotation Zrotation
						JOINT RightToe_End
						{
							OFFSET -2.754700 0.931300 11.300900
							CHANNELS 3 Xrotation Yrotation Zrotation
							End Site
							{
								OFFSET 0 0 0
							}
						}
					}
				}
			}
		}
	}
	JOINT Spine_virtual
	{
		OFFSET 0.000000 0.000000 0.000000
		CHANNELS 3 Xrotation Yrotation Zrotation
		JOINT Spine
		{
			OFFSET -0.279200 12.230698 -2.892100
			CHANNELS 3 Xrotation Yrotation Zrotation
			JOINT Spine1
			{
				OFFSET -0.232667 10.192268 -1.242267
				CHANNELS 3 Xrotation Yrotation Zrotation
				JOINT Spine1_split
				{
					OFFSET -0.232667 10.192268 -1.242267
					CHANNELS 3 Xrotation Yrotation Zrotation
					JOINT Spine2
					{
						OFFSET -0.232667 10.192268 -1.242267
						CHANNELS 3 Xrotation Yrotation Zrotation
						JOINT Neck_virtual
						{
							OFFSET 0.000000 0.000000 0.000000
							CHANNELS 3 Xrotation Yrotation Zrotation
							JOINT Neck
							{
								OFFSET -0.418800 17.814194 8.416900
								CHANNELS 3 Xrotation Yrotation Zrotation
								JOINT Head
								{
									OFFSET 0.000000 7.031097 3.806800
									CHANNELS 3 Xrotation Yrotation Zrotation
									JOINT HeadTop_End
									{
										OFFSET 0.000000 24.646606 12.978600
										CHANNELS 3 Xrotation Yrotation Zrotation
										End Site
										{
											OFFSET 0 0 0
										}
									}
								}
							}
						}
						JOINT LeftShoulder_virtual
						{
							OFFSET 0.000000 0.000000 0.000000
							CHANNELS 3 Xrotation Yrotation Zrotation
							JOINT LeftShoulder
							{
								OFFSET 8.476499 7.247704 -3.868750
								CHANNELS 3 Xrotation Yrotation Zrotation
								JOINT LeftShoulder_split
								{
									OFFSET 8.476499 7.247704 -3.868750
									CHANNELS 3 Xrotation Yrotation Zrotation
									JOINT LeftArm
									{
										OFFSET 9.308998 -2.777710 0.208600
										CHANNELS 3 Xrotation Yrotation Zrotation
										JOINT LeftForeArm
										{
											OFFSET 29.972298 0.000000 0.000000
											CHANNELS 3 Xrotation Yrotation Zrotation
											JOINT LeftHand
											{
												OFFSET 26.026505 0.000000 0.000000
												CHANNELS 3 Xrotation Yrotation Zrotation
												End Site
												{
													OFFSET 0 0 0
												}
											}
										}
									}
								}
							}
						}
						JOINT RightShoulder_virtual
						{
							OFFSET 0.000000 0.000000 0.000000
							CHANNELS 3 Xrotation Yrotation Zrotation
							JOINT RightShoulder
							{
								OFFSET -7.570500 7.247704 -3.868750
								CHANNELS 3 Xrotation Yrotation Zrotation
								JOINT RightShoulder_split
								{
									OFFSET -7.570500 7.247704 -3.868750
									CHANNELS 3 Xrotation Yrotation Zrotation
									JOINT RightArm
									{
										OFFSET -9.308998 -2.777710 0.208500
										CHANNELS 3 Xrotation Yrotation Zrotation
										JOINT RightForeArm
										{
											OFFSET -29.972300 0.000000 0.000000
											CHANNELS 3 Xrotation Yrotation Zrotation
											JOINT RightHand
											{
												OFFSET -26.026505 0.000000 0.000000
												CHANNELS 3 Xrotation Yrotation Zrotation
												End Site
												{
													OFFSET 0 0 0
												}
											}
										}
									}
								}
							}
						}
					}
				}
			}
		}
	}
}
MOTION
Frames: 6
Frame Time: 0.03333333
2.918710 79.743713 1.013714 0.000000 0.000000 0.000000 6.029294 -65.544353 8.647031 -31.709894 4.308212 17.084571 38.259858 -9.617496 -5.865766 -11.759224 -2.843845 -15.088981 2.146827 -0.034190 0.462845 0.000000 0.000000 0.000000 0.112959 -59.730728 5.069326 -26.537687 -0.735499 -31.912467 35.980624 -1.502979 -5.394785 -9.304386 0.255650 22.255323 -13.579762 3.448882 -1.199142 0.000000 0.000000 0.000000 -2.895474 -63.336713 0.586675 6.860428 3.807433 -4.320220 6.649295 0.745357 -5.869918 2.297399 -1.525984 0.673302 0.000000 0.000000 0.000000 6.787576 1.207582 -5.057305 -14.976665 23.399835 4.543748 -1.448960 15.692187 1.105125 0.000000 0.000000 0.000000 6.570162 0.682552 -5.380540 -6.462645 -21.029729 -2.346520 -8.982030 1.327821 -2.470409 -14.334699 20.550738 -27.881334 0.149779 -32.797277 1.952873 0.000000 0.000000 0.000000 6.402228 1.223773 -5.216554 -4.293902 3.906513 6.973470 1.187105 -0.717867 -0.159392 -38.577598 -21.650028 30.204415 -171.651806 61.703649 169.242744 0.000000 0.000000 0.000000 
0.754332 79.876198 1.177971 0.000000 0.000000 0.000000 4.921100 -65.689085 8.030854 -31.080844 6.869102 18.442598 38.369646 -10.716691 -6.143938 -10.922395 -3.124087 -13.369174 1.956899 -0.069721 0.595430 0.000000 0.000000 0.000000 0.199978 -60.536841 5.157136 -27.762542 -0.395865 -30.972736 41.815969 -0.729639 -4.925527 -8.364289 1.600144 18.825535 -9.129955 3.503309 -1.229060 0.000000 0.000000 0.000000 -2.798218 -63.758204 1.740196 6.677648 3.219580 -4.630401 5.845599 0.309610 -6.514345 0.795604 -2.142357 -0.174657 0.000000 0.000000 0.000000 5.706656 0.944114 -5.892337 -13.610563 23.320962 3.063055 -0.445432 15.800859 0.774481 0.000000 0.000000 0.000000 5.822793 0.390998 -5.905818 -6.102559 -20.308902 -1.326917 -8.931594 -0.597904 -0.780410 -16.093013 18.222458 -27.722669 0.662654 -35.313919 1.937397 0.000000 0.000000 0.000000 5.313007 0.705948 -5.783743 -4.486633 2.205452 6.605852 1.079876 -1.427784 0.451484 -39.394557 -22.090270 30.407145 -172.798745 57.972180 170.684911 0.000000 0.000000 0.000000 
-3.293307 80.099815 1.125340 0.000000 0.000000 0.000000 4.256681 -64.057762 8.070130 -30.033021 10.338979 20.145706 36.422305 -10.996526 -6.880710 -10.185925 -2.607718 -12.023761 2.348894 -0.084731 0.598944 0.000000 0.000000 0.000000 0.906601 -60.871991 6.178102 -31.808983 0.835271 -30.823421 51.095563 2.923953 -4.414726 -3.595113 5.262149 21.681469 -14.779884 3.696428 -2.466669 0.000000 0.000000 0.000000 -1.070268 -63.340401 4.263499 6.669943 2.582436 -4.579961 4.522649 -0.436423 -8.180904 -0.388232 -2.005433 -0.412950 0.000000 0.000000 0.000000 4.063028 0.326069 -7.582905 -11.966101 22.940386 0.277427 0.018699 15.224956 1.624002 0.000000 0.000000 0.000000 4.400964 -0.213124 -7.419010 -5.635346 -18.325128 0.634547 -8.046161 -1.376361 0.376994 -18.484929 15.867897 -27.103866 0.545334 -39.420939 1.272399 0.000000 0.000000 0.000000 3.516897 -0.171922 -7.301040 -4.630763 0.837631 5.399119 2.461497 -0.341001 1.331778 -42.182278 -27.401399 30.520086 -173.696683 50.717665 172.343773 0.000000 0.000000 0.000000 
-8.575355 80.124748 0.783081 0.000000 0.000000 0.000000 4.562187 -61.568268 9.054999 -28.578609 14.077139 21.829653 33.255259 -10.802505 -7.634885 -9.424868 -1.849106 -12.166528 1.931980 -0.085869 0.614127 0.000000 0.000000 0.000000 2.584662 -60.115063 8.352005 -36.689403 2.978669 -31.313289 60.296657 7.732816 -4.603413 1.137228 9.848037 27.515190 -25.982067 4.019235 -4.050893 0.000000 0.000000 0.000000 1.903842 -61.974753 7.740979 6.854153 1.926067 -4.328399 3.025746 -1.231004 -10.405681 -0.711528 -1.427808 -0.205843 0.000000 0.000000 0.000000 2.207283 -0.407939 -9.708994 -10.195174 22.241060 -3.241231 -0.221717 13.914955 3.228307 0.000000 0.000000 0.000000 2.609962 -0.911173 -9.505799 -5.381766 -15.388766 3.077127 -7.195854 -1.467933 1.044067 -21.489408 14.290693 -25.972600 -0.001256 -45.088302 0.265744 0.000000 0.000000 0.000000 1.365962 -1.052973 -9.383177 -4.789430 0.190920 3.476754 4.862530 1.916164 1.642906 -47.433205 -35.209550 28.615194 -173.767744 44.140736 173.329437 0.000000 0.000000 0.000000 
-14.291038 79.848793 0.326752 0.000000 0.000000 0.000000 5.840184 -58.957428 10.984466 -26.910887 17.212253 23.366154 29.962547 -11.237947 -7.708235 -8.501847 -1.615588 -14.826194 0.018759 0.002224 0.727085 0.000000 0.000000 0.000000 4.364397 -58.352287 10.831882 -40.330577 5.395911 -31.909199 65.937997 10.803867 -4.917999 3.629924 12.067217 31.145164 -32.115099 3.839748 -5.044857 0.000000 0.000000 0.000000 5.381611 -60.158264 11.497266 7.091780 1.296633 -4.015509 1.609881 -1.792842 -12.554319 -0.505517 -1.721856 0.221235 0.000000 0.000000 0.000000 0.533963 -0.970585 -11.683301 -8.616617 21.247255 -6.662301 -1.435596 12.467461 4.924164 0.000000 0.000000 0.000000 0.919656 -1.421704 -11.466489 -5.435260 -12.224162 5.982384 -6.142375 -1.270386 1.215039 -24.962892 13.696626 -24.363968 -0.181616 -51.905083 -0.405730 0.000000 0.000000 0.000000 -0.664923 -1.640653 -11.418208 -5.100136 0.481353 0.756032 6.551257 3.332572 1.451246 -55.614129 -41.939936 23.090658 -173.285219 40.418689 173.585829 0.000000 0.000000 0.000000 
-20.021700 79.158943 0.001190 0.000000 0.000000 0.000000 7.662436 -56.375145 13.437269 -24.785230 19.375276 24.435196 27.427110 -12.167380 -6.754999 -8.639595 -1.841461 -18.151072 -1.857233 0.155211 0.505887 0.000000 0.000000 0.000000 6.153731 -56.401967 13.416349 -42.280357 7.623437 -33.017186 66.035095 11.297501 -4.115574 4.071840 10.203247 30.829162 -27.858069 2.550746 -4.830424 0.000000 0.000000 0.000000 8.749016 -57.944183 14.777500 7.147282 0.687518 -3.719402 0.554992 -1.941139 -14.000809 -0.378618 -2.079731 1.172598 0.000000 0.000000 0.000000 -0.528905 -1.238111 -12.951195 -7.563173 20.045886 -9.392032 -3.622123 11.021380 5.909202 0.000000 0.000000 0.000000 -0.269887 -1.554104 -12.687611 -5.802242 -9.331544 8.898092 -5.478635 -1.079250 0.826102 -27.983857 14.534680 -22.861753 1.009296 -58.958125 0.187640 0.000000 0.000000 0.000000 -2.034316 -1.784451 -12.808560 -5.362892 1.902751 -2.754059 6.751387 2.934123 1.404595 -65.324722 -44.711692 14.794627 -172.434136 39.543268 173.084698 0.000000 0.000000 0.000000 
